<?xml version="1.0" encoding="iso-8859-1"?>
<!-- Uploaded to: SVG Repo, www.svgrepo.com, Generator: SVG Repo Mixer Tools -->
<!DOCTYPE svg PUBLIC "-//W3C//DTD SVG 1.1//EN" "http://www.w3.org/Graphics/SVG/1.1/DTD/svg11.dtd">
<svg height="800px" width="800px" version="1.1" id="Capa_1" xmlns="http://www.w3.org/2000/svg" xmlns:xlink="http://www.w3.org/1999/xlink" 
	 viewBox="0 0 295.853 295.853" xml:space="preserve">
<g>
	<path style="fill:#78A0B4;" d="M72.929,76.129c7.213-18.076,29.367-31.275,55.517-31.275h38.961
		c26.15,0,48.305,13.199,55.517,31.275C215.268,41.77,184.561,16,147.928,16S80.586,41.77,72.929,76.129z"/>
	<path style="fill:#FFFFFF;" d="M86.903,84.844l122.046-0.006c-3.025-13.357-20.816-23.984-41.542-23.984h-38.961
		C107.717,60.854,89.924,71.484,86.903,84.844z"/>
	<path d="M232.778,100.854c4.418,0,8-3.582,8-8C240.778,41.654,199.126,0,147.928,0C96.729,0,55.075,41.654,55.075,92.854
		c0,4.418,3.582,8,8,8h8.903l2.881,38h-7.412c-2.228,0-4.354,0.762-5.868,2.396c-1.515,1.635-2.278,3.742-2.108,5.964l6.576,86.125
		c0.318,4.169,3.795,7.515,7.977,7.515h8.636l3.666,47.777c0.318,4.168,3.795,7.223,7.977,7.223h107.251
		c4.182,0,7.658-3.055,7.977-7.223l3.666-47.777h8.636c4.182,0,7.658-3.387,7.977-7.557l6.576-86.083
		c0.17-2.222-0.594-4.288-2.108-5.922c-1.514-1.635-3.641-2.439-5.868-2.439h-7.411l2.88-38H232.778z M219.772,154.854l-2.09,27
		H78.172l-2.09-27H219.772z M197.124,240.854l-2.982,39h-92.428l-2.982-39H197.124z M81.435,224.854l-2.039-27h137.063l-2.039,27
		H81.435z M90.906,138.854l-2.882-37.844l119.807,0.077l-2.882,37.767H90.906z M222.925,76.129
		c-7.213-18.076-29.367-31.275-55.517-31.275h-38.961c-26.15,0-48.305,13.199-55.517,31.275C80.586,41.77,111.295,16,147.928,16
		S215.268,41.77,222.925,76.129z M167.407,60.854c20.726,0,38.517,10.627,41.542,23.984L86.903,84.844
		c3.021-13.359,20.813-23.99,41.543-23.99H167.407z"/>
	<polygon style="fill:#603D13;" points="207.831,101.004 88.024,101.094 90.906,138.854 204.949,138.854 	"/>
	<polygon style="fill:#603D13;" points="194.142,279.853 197.124,240.854 98.731,240.854 101.714,279.853 	"/>
	<polygon style="fill:#CC7B05;" points="76.082,154.854 78.172,181.854 217.683,181.854 219.772,154.854 	"/>
	<polygon style="fill:#FFB929;" points="214.42,224.854 216.459,197.854 79.396,197.854 81.435,224.854 	"/>
</g>
</svg>