<?xml version="1.0" encoding="iso-8859-1"?>
<!-- Uploaded to: SVG Repo, www.svgrepo.com, Generator: SVG Repo Mixer Tools -->
<!DOCTYPE svg PUBLIC "-//W3C//DTD SVG 1.1//EN" "http://www.w3.org/Graphics/SVG/1.1/DTD/svg11.dtd">
<svg height="800px" width="800px" version="1.1" id="Capa_1" xmlns="http://www.w3.org/2000/svg" xmlns:xlink="http://www.w3.org/1999/xlink" 
	 viewBox="0 0 295.999 295.999" xml:space="preserve">
<g>
	<polygon style="fill:#603D13;" points="187.408,279.999 189.696,249.999 106.303,249.999 108.591,279.999 	"/>
	<polygon style="fill:#A56905;" points="101.728,189.999 105.083,233.999 190.915,233.999 194.271,189.999 	"/>
	<polygon style="fill:#FFB929;" points="100.508,173.999 195.491,173.999 197.855,142.999 98.144,142.999 	"/>
	<path style="fill:#78A0B4;" d="M199.419,96.999c-5.071-23.734-26.196-41.586-51.42-41.586c-25.224,0-46.349,17.852-51.42,41.586
		H199.419z"/>
	<path style="fill:#FFFFFF;" d="M211.499,112.999h-127c-3.859,0-7,3.141-7,7s3.141,7,7,7h127c3.859,0,7-3.141,7-7
		S215.359,112.999,211.499,112.999z"/>
	<path d="M234.499,119.999c0-11.223-8.081-20.587-18.727-22.596c-3.183-20.587-15.498-38.089-32.644-48.323l8.951-26.967
		l16.243,14.588c3.288,2.951,8.345,2.679,11.298-0.606c2.952-3.288,2.681-8.346-0.606-11.298l-25.333-22.75
		c-2.008-1.803-4.792-2.47-7.396-1.78c-2.608,0.691-4.691,2.651-5.542,5.212L168.45,42.513c-6.461-2.014-13.33-3.1-20.45-3.1
		c-34.23,0-62.681,25.059-67.773,57.99c-10.647,2.009-18.727,11.373-18.727,22.596c0,11.868,9.035,21.664,20.588,22.873
		l11.114,145.735c0.317,4.17,3.794,7.392,7.977,7.392h93.643c4.183,0,7.659-3.222,7.977-7.392l11.114-145.735
		C225.464,141.663,234.499,131.867,234.499,119.999z M211.499,126.999h-127c-3.859,0-7-3.141-7-7s3.141-7,7-7h127
		c3.859,0,7,3.141,7,7S215.359,126.999,211.499,126.999z M105.083,233.999l-3.356-44h92.543l-3.355,44H105.083z M189.696,249.999
		l-2.288,30h-78.816l-2.288-30H189.696z M195.491,173.999h-94.982l-2.364-31h99.711L195.491,173.999z M147.999,55.413
		c25.224,0,46.349,17.852,51.42,41.586H96.58C101.651,73.265,122.776,55.413,147.999,55.413z"/>
</g>
</svg>