<?xml version="1.0" encoding="iso-8859-1"?>
<!-- Uploaded to: SVG Repo, www.svgrepo.com, Generator: SVG Repo Mixer Tools -->
<!DOCTYPE svg PUBLIC "-//W3C//DTD SVG 1.1//EN" "http://www.w3.org/Graphics/SVG/1.1/DTD/svg11.dtd">
<svg height="800px" width="800px" version="1.1" id="Capa_1" xmlns="http://www.w3.org/2000/svg" xmlns:xlink="http://www.w3.org/1999/xlink" 
	 viewBox="0 0 296.783 296.783" xml:space="preserve">
<g>
	<path style="fill:#C4903D;" d="M103.492,120.496c-0.038-0.005-0.074-0.015-0.113-0.019c-0.039-0.064-0.083-0.125-0.122-0.19
		c-4.191-3.778-9.696-7.511-15.105-7.933c-2.791-0.225-5.436,0.521-8.02,2.217c-0.169,0.243-0.323,0.492-0.462,0.75l14.657,152.366
		c3.749,2.353,11.802,6.661,24.237,9.693l-10.319-151.966C107.043,123.995,105.412,122.247,103.492,120.496z"/>
	<path style="fill:#C4903D;" d="M207.268,112.356c-8.003,0.645-16.305,8.627-20.062,13.057l-10.343,152.316
		c5.79-1.326,10.523-2.907,14.209-4.367c5.324-2.11,9.037-4.237,11.298-5.666l14.676-151.853
		C213.901,113.229,210.686,112.082,207.268,112.356z"/>
	<path style="fill:#C4903D;" d="M148.094,117.558c-10.036,0-19.178,5.935-23.33,14.951l9.981,147
		c0.201,0.226,0.403,0.449,0.611,0.667c4.058,0.387,8.401,0.607,13.035,0.607c4.373,0,8.449-0.202,12.265-0.539l10.126-149.127
		C166.524,122.798,157.928,117.558,148.094,117.558z"/>
	<path style="fill:#C4903D;" d="M195.892,57.793c-13.189-3.927-29.935-6.178-47.501-6.178c-17.63,0-34.305,2.227-47.51,6.175
		c13.599,3.805,30.092,5.861,47.51,5.861C165.805,63.651,182.295,61.596,195.892,57.793z"/>
	<path style="fill:#A56905;" d="M148.391,79.651c-23.367,0-45.455-3.495-62.194-9.841c-4.231-1.604-8.042-3.373-11.413-5.284
		l3.21,33.367c3.686-1.291,7.538-1.805,11.476-1.485c7.941,0.64,15.967,4.483,23.852,11.425c2.264,1.992,4.182,3.961,5.676,5.611
		c7.644-7.438,18.034-11.887,29.098-11.887c11.141,0,21.331,4.187,28.842,11.359c1.418-1.535,3.169-3.301,5.195-5.084
		c7.885-6.941,15.91-10.785,23.851-11.425c4.394-0.351,8.684,0.323,12.752,1.968l3.271-33.854c-3.373,1.913-7.186,3.684-11.42,5.288
		C193.848,76.156,171.759,79.651,148.391,79.651z"/>
	<path style="fill:#FFFFFF;" d="M204.914,24.802C189.942,19.126,169.869,16,148.391,16c-21.478,0-41.551,3.126-56.522,8.802
		c-14.336,5.436-19.423,11.491-19.423,15.025c0,2.271,2.119,5.584,7.427,9.104c16.304-8.363,41.641-13.315,68.519-13.315
		c27.167,0,52.191,4.919,68.524,13.313c5.305-3.52,7.423-6.831,7.423-9.102C224.338,36.293,219.251,30.237,204.914,24.802z"/>
	<path d="M240.338,39.827c0-12.062-10.565-22.712-29.751-29.985C193.848,3.495,171.759,0,148.391,0
		c-23.368,0-45.455,3.495-62.194,9.842c-19.186,7.273-29.751,17.923-29.751,29.985c0,0.667,22.395,233.07,22.395,233.07
		c0.202,2.088,1.143,4.014,2.75,5.36c0.902,0.757,22.802,18.525,66.802,18.525s65.902-17.769,66.805-18.525
		c1.608-1.348,2.479-3.272,2.681-5.36C217.877,272.897,240.338,40.495,240.338,39.827z M94.327,267.688L79.67,115.321l-0.041-0.427
		c0.167-0.118,0.335-0.213,0.503-0.323c2.584-1.695,5.229-2.441,8.02-2.217c5.409,0.422,10.914,4.154,15.105,7.933
		c0.077,0.069,0.159,0.139,0.235,0.209c1.92,1.751,3.551,3.499,4.753,4.919l10.319,151.966
		C106.129,274.349,98.076,270.04,94.327,267.688z M160.656,280.244c-3.815,0.337-7.892,0.539-12.265,0.539
		c-4.634,0-8.978-0.221-13.035-0.607c-0.191-0.018-0.379-0.038-0.569-0.058l-0.042-0.609l-9.981-147
		c4.152-9.017,13.294-14.951,23.33-14.951c9.834,0,18.431,5.24,22.688,13.56L160.656,280.244z M202.37,267.696
		c-2.261,1.429-5.974,3.556-11.298,5.666c-3.686,1.46-8.419,3.041-14.209,4.367l10.343-152.316
		c3.757-4.43,12.059-12.412,20.062-13.057c3.419-0.274,6.634,0.872,9.778,3.486L202.37,267.696z M218.734,98.376
		c-4.068-1.645-8.358-2.318-12.752-1.968c-7.941,0.64-15.967,4.483-23.851,11.425c-2.026,1.783-3.777,3.549-5.195,5.084
		c-7.511-7.173-17.701-11.359-28.842-11.359c-11.063,0-21.454,4.449-29.098,11.887c-1.494-1.65-3.412-3.619-5.676-5.611
		c-7.885-6.941-15.91-10.785-23.852-11.425c-3.938-0.319-7.79,0.194-11.476,1.485l-3.21-33.367c3.371,1.911,7.182,3.68,11.413,5.284
		c16.739,6.346,38.827,9.841,62.194,9.841c23.368,0,45.457-3.495,62.195-9.841c4.234-1.604,8.047-3.375,11.42-5.288L218.734,98.376z
		 M100.881,57.79c13.205-3.948,29.88-6.175,47.51-6.175c17.566,0,34.311,2.251,47.501,6.178
		c-13.597,3.803-30.087,5.858-47.501,5.858C130.973,63.651,114.479,61.595,100.881,57.79z M216.915,48.929
		c-16.333-8.395-41.357-13.313-68.524-13.313c-26.878,0-52.215,4.952-68.519,13.315c-5.308-3.52-7.427-6.833-7.427-9.104
		c0-3.534,5.087-9.59,19.423-15.025C106.84,19.126,126.913,16,148.391,16c21.478,0,41.552,3.126,56.523,8.802
		c14.337,5.436,19.424,11.491,19.424,15.025C224.338,42.098,222.22,45.409,216.915,48.929z"/>
</g>
</svg>