<?xml version="1.0" encoding="iso-8859-1"?>
<!-- Uploaded to: SVG Repo, www.svgrepo.com, Generator: SVG Repo Mixer Tools -->
<!DOCTYPE svg PUBLIC "-//W3C//DTD SVG 1.1//EN" "http://www.w3.org/Graphics/SVG/1.1/DTD/svg11.dtd">
<svg height="800px" width="800px" version="1.1" id="Capa_1" xmlns="http://www.w3.org/2000/svg" xmlns:xlink="http://www.w3.org/1999/xlink" 
	 viewBox="0 0 295 295" xml:space="preserve">
<g>
	<path d="M237.626,57.357c-8.358,0-16.296,1.811-23.465,5.039l4.77-43.015c0.251-2.262-0.474-4.522-1.991-6.218
		c-1.518-1.695-3.685-2.664-5.96-2.664H8c-2.275,0-4.442,0.969-5.96,2.664c-1.518,1.695-2.242,3.956-1.991,6.218l28.607,258
		c0.449,4.052,3.874,7.118,7.951,7.118h145.767c4.077,0,7.502-3.066,7.951-7.118l4.715-42.521
		c7.729-3.711,27.602-13.952,47.694-30.02c34.193-27.341,52.267-58.5,52.267-90.109C295,83.096,269.262,57.357,237.626,57.357z
		 M202.044,26.5l-9.203,83H141c-7.998-10.184-19.165-16.525-31.511-16.525S85.977,99.316,77.978,109.5h-51.84l-9.202-83H202.044z
		 M186.188,169.5h-36.453c2.406-6.734,3.755-14.174,3.755-22s-1.349-15.266-3.755-22h41.332L186.188,169.5z M111.05,185.963
		c0.416-17.32,2.965-26.571,5.651-36.311c2.627-9.52,5.327-19.319,6.081-36.051c8.75,6.522,14.706,19.271,14.707,33.898
		C137.488,168.022,125.765,184.844,111.05,185.963z M69.242,169.5h-36.45l-4.879-44h41.33c-2.407,6.734-3.755,14.174-3.755,22
		S66.836,162.766,69.242,169.5z M81.488,147.5c0.001-20.055,11.196-36.57,25.439-38.357c-0.42,17.285-2.967,26.526-5.65,36.256
		c-2.584,9.365-5.239,19.003-6.043,35.242C87.014,173.922,81.488,161.584,81.488,147.5z M77.977,185.5
		c7.999,10.184,19.166,16.525,31.513,16.525c12.346,0,23.513-6.342,31.511-16.525h43.414l-9.203,83H43.769l-9.202-83H77.977z
		 M197.157,215.754l14.795-133.43c7.059-5.605,15.979-8.967,25.674-8.967c22.813,0,41.374,18.561,41.374,41.375
		C279,165.533,222.398,202.015,197.157,215.754z"/>
	<path style="fill:#78A0B4;" d="M175.211,268.5l9.203-83H141c-7.998,10.184-19.165,16.525-31.511,16.525
		c-12.347,0-23.514-6.342-31.513-16.525h-43.41l9.202,83H175.211z"/>
	<path style="fill:#78A0B4;" d="M26.139,109.5h51.84c7.998-10.184,19.165-16.525,31.511-16.525S133.002,99.316,141,109.5h51.841
		l9.203-83H16.936L26.139,109.5z"/>
	<path style="fill:#FFFFFF;" d="M149.734,125.5c2.406,6.734,3.755,14.174,3.755,22s-1.349,15.266-3.755,22h36.453l4.879-44H149.734z
		"/>
	<path style="fill:#FFFFFF;" d="M27.913,125.5l4.879,44h36.45c-2.406-6.734-3.754-14.174-3.754-22s1.348-15.266,3.755-22H27.913z"/>
	<path style="fill:#A56905;" d="M95.234,180.641c0.804-16.239,3.459-25.877,6.043-35.242c2.683-9.729,5.23-18.971,5.65-36.256
		c-14.243,1.787-25.438,18.303-25.439,38.357C81.488,161.584,87.014,173.922,95.234,180.641z"/>
	<path style="fill:#A56905;" d="M137.489,147.5c-0.001-14.628-5.957-27.376-14.707-33.898c-0.754,16.731-3.454,26.531-6.081,36.051
		c-2.687,9.739-5.235,18.99-5.651,36.311C125.765,184.844,137.488,168.022,137.489,147.5z"/>
</g>
</svg>