<?xml version="1.0" encoding="iso-8859-1"?>
<!-- Uploaded to: SVG Repo, www.svgrepo.com, Generator: SVG Repo Mixer Tools -->
<!DOCTYPE svg PUBLIC "-//W3C//DTD SVG 1.1//EN" "http://www.w3.org/Graphics/SVG/1.1/DTD/svg11.dtd">
<svg height="800px" width="800px" version="1.1" id="Capa_1" xmlns="http://www.w3.org/2000/svg" xmlns:xlink="http://www.w3.org/1999/xlink" 
	 viewBox="0 0 296 296" xml:space="preserve">
<g>
	<path d="M227.667,68h-1.407c-0.004-8.39-0.008-16.074-0.011-22.688c9.993-2.501,17.418-11.554,17.418-22.312
		c0-12.683-10.317-23-23-23h-187c-12.683,0-23,10.317-23,23c0,11.102,7.906,20.391,18.384,22.534
		c0.021,42.649,0.065,129.886,0.105,163.299c0.043,35.065,14.008,56.698,25.716,68.667c12.848,13.135,25.886,17.838,26.435,18.032
		c0.855,0.301,1.755,0.468,2.661,0.468c0.003,0,0.007,0,0.01,0l87.626-0.12c0.907-0.001,1.808-0.171,2.662-0.474
		c0.55-0.195,13.61-4.928,26.462-18.09c4.692-4.806,9.741-11.168,14.109-19.316h12.83c31.981,0,57.667-26.007,57.667-57.975v-74
		C285.333,94.03,259.648,68,227.667,68z M85.508,279.973c-6.62-2.884-40.29-20.081-40.352-71.162
		C45.116,175.525,45.071,88.816,45.05,46h165.198c0.02,42.895,0.065,129.376,0.106,162.609c0.064,51.321-33.515,68.347-40.3,71.262
		L85.508,279.973z M26.667,23c0-3.859,3.141-7,7-7h187c3.859,0,7,3.141,7,7s-3.141,7-7,7h-187C29.807,30,26.667,26.859,26.667,23z
		 M269.333,200.025c0,23.145-18.508,41.975-41.667,41.975h-6.138c2.961-9.457,4.842-20.533,4.826-33.427
		c-0.03-25.071-0.063-80.462-0.087-124.573h1.398c23.159,0,41.667,18.853,41.667,42.025V200.025z"/>
	<path style="fill:#A56905;" d="M210.355,208.609c-0.041-33.233-0.086-119.715-0.106-162.609H45.05
		c0.021,42.816,0.065,129.525,0.105,162.811c0.063,51.081,33.732,68.278,40.352,71.162l84.547-0.102
		C176.84,276.956,210.419,259.931,210.355,208.609z M127.696,213.921c-1.24,0-2.481-0.288-3.618-0.865
		c-20.077-10.182-35.633-23.618-44.985-38.857c-8.251-13.443-11.334-28.049-8.459-40.072c3.251-13.599,13.432-22.047,26.568-22.047
		c14.954,0,24.594,6.265,30.494,13.9c5.901-7.636,15.541-13.9,30.496-13.9c13.137,0,23.316,8.447,26.568,22.046
		c5.322,22.262-9.133,56.458-53.446,78.931C130.177,213.633,128.936,213.921,127.696,213.921z"/>
	<path style="fill:#FFB929;" d="M33.667,30h187c3.859,0,7-3.141,7-7s-3.141-7-7-7h-187c-3.859,0-7,3.141-7,7S29.807,30,33.667,30z"
		/>
	<path style="fill:#FFFFFF;" d="M127.696,196.884c36.02-19.632,44.661-45.826,41.503-59.038c-0.872-3.648-3.462-9.767-11.007-9.767
		c-20.661,0-22.458,18.526-22.524,19.315c-0.349,4.144-3.814,7.329-7.972,7.329c-4.158,0-7.623-3.186-7.972-7.329
		c-0.001,0-0.559-5.263-3.761-10.225c-3.948-6.117-10.086-9.091-18.762-9.091c-7.546,0-10.135,6.119-11.007,9.767
		C83.036,151.059,91.677,177.253,127.696,196.884z"/>
	<path d="M184.76,134.125c-3.252-13.599-13.432-22.046-26.568-22.046c-14.955,0-24.595,6.265-30.496,13.9
		c-5.9-7.636-15.54-13.9-30.494-13.9c-13.137,0-23.317,8.448-26.568,22.047c-2.875,12.023,0.208,26.629,8.459,40.072
		c9.353,15.239,24.908,28.676,44.985,38.857c1.137,0.577,2.378,0.865,3.618,0.865c1.24,0,2.481-0.288,3.618-0.865
		C175.627,190.583,190.083,156.387,184.76,134.125z M86.195,137.846c0.872-3.648,3.461-9.767,11.007-9.767
		c8.676,0,14.813,2.974,18.762,9.091c3.202,4.962,3.76,10.225,3.761,10.225c0.349,4.144,3.814,7.329,7.972,7.329
		c4.158,0,7.623-3.186,7.972-7.329c0.066-0.789,1.863-19.315,22.524-19.315c7.545,0,10.135,6.119,11.007,9.767
		c3.158,13.212-5.483,39.406-41.503,59.038C91.677,177.253,83.036,151.059,86.195,137.846z"/>
</g>
</svg>