<?xml version="1.0" encoding="iso-8859-1"?>
<!-- Uploaded to: SVG Repo, www.svgrepo.com, Generator: SVG Repo Mixer Tools -->
<!DOCTYPE svg PUBLIC "-//W3C//DTD SVG 1.1//EN" "http://www.w3.org/Graphics/SVG/1.1/DTD/svg11.dtd">
<svg height="800px" width="800px" version="1.1" id="Capa_1" xmlns="http://www.w3.org/2000/svg" xmlns:xlink="http://www.w3.org/1999/xlink" 
	 viewBox="0 0 297.667 297.667" xml:space="preserve">
<g>
	<path d="M256.222,59.942c1.352-2.926,2.195-6.179,2.195-9.608c0-12.683-10.234-23-22.917-23h-187c-12.683,0-23,10.317-23,23
		c0,7.822,3.929,14.742,9.913,18.898c0.025,17.588,0.063,44.955,0.098,73.971c0.047,37.907,15.128,61.277,27.771,74.205
		c13.861,14.172,27.895,19.239,28.485,19.448c0.855,0.301,1.755,0.477,2.661,0.477c0.003,0,0.007,0,0.01,0h95.312
		c0.907-0.001,1.816-0.309,2.671-0.611c0.592-0.21,14.65-5.291,28.518-19.493c4.48-4.589,9.262-10.494,13.57-17.881
		c4.39,1.284,9.025,1.985,13.824,1.985h0.334c27.202,0,49-22.131,49-49.334v-43.332C297.667,84.091,279.769,63.66,256.222,59.942z
		 M142,172.675c-13.974,0-25.342-11.368-25.342-25.342s11.368-25.342,25.342-25.342s25.342,11.368,25.342,25.342
		S155.974,172.675,142,172.675z M232.612,140.333h-49.875c-3.337-19.473-20.328-34.342-40.737-34.342s-37.4,14.869-40.737,34.342
		H51.507c-0.03-25.784-0.063-50.038-0.088-67H232.52C232.545,90.332,232.579,114.58,232.612,140.333z M235.5,57.333h-187
		c-3.859,0-7-3.141-7-7s3.141-7,7-7h187c3.859,0,7,3.141,7,7S239.359,57.333,235.5,57.333z M101.657,156.333
		c4.12,18.48,20.639,32.342,40.343,32.342s36.223-13.861,40.343-32.342h49.527c-5.221,46.174-37.037,62.032-43.65,64.842
		l-92.272,0.111c-6.695-2.84-38.45-18.689-43.685-64.953H101.657z M281.667,151.999c0,18.381-14.62,33.334-33,33.334h-0.334
		c-2.341,0-4.625-0.245-6.83-0.707c4.276-11.35,7.134-25.123,7.113-41.66c-0.006-4.824-0.013-9.601-0.018-14.296
		c-0.013-9.555-0.026-18.767-0.038-27.318c-0.013-9.668-0.025-18.489-0.036-26.019h0.144c18.38,0,33,14.953,33,33.334V151.999z"/>
	<path style="fill:#FFFFFF;" d="M95.947,221.287l92.272-0.111c6.613-2.81,38.43-18.668,43.65-64.842h-49.527
		c-4.12,18.48-20.639,32.342-40.343,32.342s-36.223-13.861-40.343-32.342H52.263C57.497,202.597,89.252,218.447,95.947,221.287z"/>
	<path style="fill:#FFB929;" d="M248.56,101.352c0.012,8.552,0.025,17.764,0.038,27.318
		C249.726,119.757,249.553,110.407,248.56,101.352z"/>
	<path style="fill:#FFB929;" d="M51.419,73.334c0.025,16.962,0.058,41.216,0.088,67h49.756
		c3.337-19.473,20.328-34.342,40.737-34.342s37.4,14.869,40.737,34.342h49.875c-0.033-25.754-0.067-50.001-0.092-67H51.419z"/>
	<path d="M288,254.333H8c-4.418,0-8,3.582-8,8s3.582,8,8,8h280c4.418,0,8-3.582,8-8S292.418,254.333,288,254.333z"/>
	<path style="fill:#FFFFFF;" d="M235.5,43.333h-187c-3.859,0-7,3.141-7,7s3.141,7,7,7h187c3.859,0,7-3.141,7-7
		S239.359,43.333,235.5,43.333z"/>
	<path style="fill:#A56905;" d="M142,121.992c-13.974,0-25.342,11.368-25.342,25.342s11.368,25.342,25.342,25.342
		s25.342-11.368,25.342-25.342S155.974,121.992,142,121.992z"/>
</g>
</svg>