<?xml version="1.0" encoding="iso-8859-1"?>
<!-- Uploaded to: SVG Repo, www.svgrepo.com, Generator: SVG Repo Mixer Tools -->
<!DOCTYPE svg PUBLIC "-//W3C//DTD SVG 1.1//EN" "http://www.w3.org/Graphics/SVG/1.1/DTD/svg11.dtd">
<svg height="800px" width="800px" version="1.1" id="Capa_1" xmlns="http://www.w3.org/2000/svg" xmlns:xlink="http://www.w3.org/1999/xlink" 
	 viewBox="0 0 296.251 296.251" xml:space="preserve">
<g>
	<path d="M247.835,82.126c-0.124,0-0.246,0.009-0.369,0.01c0.184-2.666,0.285-5.337,0.285-8.01c0-4.418-3.582-8-8-8H8
		c-4.418,0-8,3.582-8,8c0,31.859,13.212,63.5,36.249,86.811c23.62,23.901,54.74,37.064,87.627,37.064
		c32.553,0,63.369-12.904,86.9-36.348c8.889,10.57,22.199,17.305,37.059,17.305c26.696,0,48.416-21.72,48.416-48.417
		C296.251,103.845,274.531,82.126,247.835,82.126z M123.876,182.001c-55.787,0-103.316-44.966-107.567-99.876h215.134
		C227.191,137.036,179.663,182.001,123.876,182.001z M247.835,162.958c-10.833,0-20.418-5.318-26.305-13.48
		c11.744-15.174,19.878-32.81,23.713-51.24c0.855-0.067,1.719-0.112,2.592-0.112c17.901,0,32.416,14.512,32.416,32.416
		S265.736,162.958,247.835,162.958z"/>
	<path style="fill:#A56905;" d="M231.442,82.126H16.309c4.251,54.91,51.78,99.876,107.567,99.876S227.191,137.036,231.442,82.126z"
		/>
	<path d="M239.25,214.126h-231c-4.418,0-8,3.582-8,8s3.582,8,8,8h231c4.418,0,8-3.582,8-8S243.668,214.126,239.25,214.126z"/>
</g>
</svg>