<?xml version="1.0" encoding="utf-8"?>
<!-- Uploaded to: SVG Repo, www.svgrepo.com, Generator: SVG Repo Mixer Tools -->
<svg width="800px" height="800px" viewBox="0 0 1024 1024" class="icon"  version="1.1" xmlns="http://www.w3.org/2000/svg"><path d="M40.006064 678.903604s-0.352787-81.705505 129.966788-155.014677c43.322263-23.918969 158.471991-109.434576 210.896162-156.214153 34.220354-22.79005 212.025081-153.885758 355.680011 13.688142 38.73603 42.193344 142.526011 223.455385-61.52608 385.314132-66.112313 46.709019-219.998071 148.170606-517.538758 39.864949-45.650658-19.332736-117.478123-68.370151-117.478123-127.638393z" fill="#F4C323" /><path d="M743.110866 389.124233c-15.66375 17.498243-30.692483 46.42679-25.189003 91.442431 4.586233 66.888445-7.620203 197.631365-174.770757 250.831669-70.627989 10.089713-336.558947 95.111417-493.549232-89.114036-9.595811 22.225591-9.595811 36.689864-9.59581 36.689864 0 59.268242 71.827465 108.305657 117.407565 127.708951 297.540688 108.305657 451.426445 6.844071 517.538759-39.864949 193.539034-153.603528 110.351823-324.423069 68.158478-377.69393z" fill="#F5B01C" /><path d="M189.940605 671.495073m-14.252601 0a14.252601 14.252601 0 1 0 28.505202 0 14.252601 14.252601 0 1 0-28.505202 0Z" fill="#744520" /><path d="M363.229656 703.951492m-14.252601 0a14.252601 14.252601 0 1 0 28.505202 0 14.252601 14.252601 0 1 0-28.505202 0Z" fill="#744520" /><path d="M208.708882 718.204093m-14.252601 0a14.252601 14.252601 0 1 0 28.505202 0 14.252601 14.252601 0 1 0-28.505202 0Z" fill="#744520" /><path d="M870.114242 552.253015c-36.548749 0-64.912837-13.688142-84.457245-40.852753-6.702956-9.313581-11.712534-19.332736-15.593192-29.140219-16.228209 4.092331-27.235168 3.739544-27.799628 3.739544l0.352787-10.583615 0.352787-10.583615c0.141115 0 8.184662 0.141115 20.461655-2.75174-1.905051-6.914628-3.316199-13.19424-4.515675-18.415489-0.211672-1.058361-0.423345-2.046166-0.705575-2.963412l-0.211672-1.058362v-1.058361c-0.352787-16.298767 2.892855-26.600152 10.371943-32.456419 8.890236-6.985186 19.685523-4.021774 25.471232-2.398952 0.987804 0.28223 2.398953 0.635017 2.892855 0.705574l1.905051 0.141115 1.763935 0.846689c8.043547 3.810101 22.578378 0.423345 51.436368-6.420726l27.023496-6.420726-15.94598 22.79005c-6.844071 9.807483-14.040929 18.203817-21.308344 25.400675 4.092331-0.070557 8.043547 0.070557 11.924206 0.423345 17.145456 1.622821 32.103631 7.620203 44.380624 17.780472 4.021774 3.245642 7.620203 6.138497 11.148074 8.960794 21.096672 17.145456 31.680287 25.682905 62.37277 39.371047l20.955557 9.384138-20.743885 9.878041c-30.410253 14.464273-62.161097 23.07228-94.405843 25.54179h-0.352787c-2.116723 0.070557-4.445118 0.141115-6.773514 0.141115z m-80.012127-76.625371c11.571419 28.928547 34.220354 57.645421 85.868394 55.317026 22.225591-1.693378 44.239509-6.632399 65.688969-14.605388-18.486047-9.87804-29.351891-18.697719-45.791773-31.962516-3.457314-2.822297-7.055743-5.715152-11.077517-8.960794l-0.141115-0.070558c-14.182044-11.712534-39.864949-21.026115-84.104458-4.515675-3.598429 1.834493-7.126301 3.386757-10.4425 4.797905z m-10.936402-38.594915c0.141115 0.635017 0.28223 1.270034 0.423345 1.975608 1.058361 4.797905 2.257838 10.16027 3.810101 15.875422 2.963412-1.270034 5.926824-2.46951 8.819679-3.598429 12.34755-6.350169 23.707297-14.746503 34.07924-24.97733-14.464273 2.610625-24.201199 2.75174-33.303108-1.058362-1.552263-0.28223-3.104527-0.705574-4.727348-1.128919-1.834493-0.493902-5.574037-1.552263-6.914628-1.270033-0.352787 0.564459-2.257838 3.739544-2.187281 14.182043z" fill="#774621" /><path d="M379.740095 256.970165s-18.344932-32.668091-86.856198-32.456419c-22.648935 0.211672-87.914559-7.831875-119.312616-14.605388-18.768277-1.340591-119.312616-13.405912-138.645353 85.797836-5.926824 25.54179-6.350169 121.217667 111.551299 139.633157 36.901537 3.668986 121.147109 9.384138 215.270723-101.038242 13.829257-17.921588 31.398057-53.694205 17.992145-77.330944z" fill="#F8DF89" /><path d="M361.818508 334.371667c9.243023-12.135878 20.179425-32.244746 22.296148-51.295253-18.627162 25.330118-36.26652 41.276097-71.615793 72.039138-63.219458 54.964239-171.031213 48.472955-213.154-1.128919-25.330118-50.236891-39.653276-63.501688-63.219458-63.431131-0.423345 1.693378-0.846689 3.386757-1.199477 5.150692-5.926824 25.54179-6.350169 121.217667 111.551299 139.633157 36.972094 3.739544 121.217667 9.454696 215.341281-100.967684z" fill="#F7D56B" /></svg>