<?xml version="1.0" encoding="utf-8"?>
<!-- Uploaded to: SVG Repo, www.svgrepo.com, Generator: SVG Repo Mixer Tools -->
<svg width="800px" height="800px" viewBox="0 0 1024 1024" class="icon"  version="1.1" xmlns="http://www.w3.org/2000/svg"><path d="M393.004892 500.393303m-320.683525 0a320.683525 320.683525 0 1 0 641.36705 0 320.683525 320.683525 0 1 0-641.36705 0Z" fill="#F2C232" /><path d="M504.415076 772.603872c-177.099152 0-320.683525-143.584373-320.683525-320.683525 0-109.85792 55.246469-206.733274 139.421484-264.51981-143.513815 31.891959-250.902226 159.883139-250.902225 312.992766 0 177.099152 143.584373 320.683525 320.683525 320.683525 67.311789 0 129.684559-20.743885 181.262041-56.163716-22.437263 5.009578-45.791773 7.69076-69.7813 7.69076z" fill="#F5AD1A" /><path d="M497.359333 275.173982s0.211672 0 0.635017-0.070557c0.423345-0.070557 1.058361-0.141115 1.905051-0.141115 1.622821-0.141115 4.092331-0.211672 7.1263-0.070558 3.03397 0.070557 6.702956 0.423345 10.865845 1.058362 1.058361 0.141115 2.116723 0.352787 3.175084 0.564459l3.386757 0.635017c2.328395 0.493902 4.65679 1.128919 7.196858 1.763936 1.270034 0.28223 2.46951 0.705574 3.739543 1.128919 1.270034 0.423345 2.540068 0.846689 3.880659 1.270033 1.340591 0.423345 2.610625 0.987804 3.951216 1.481707 1.340591 0.493902 2.681182 1.058361 4.092331 1.62282 2.75174 1.128919 5.50348 2.398953 8.25522 3.810102 2.822297 1.340591 5.574037 2.963412 8.325777 4.586233 1.411149 0.776132 2.75174 1.693378 4.162888 2.610625 1.340591 0.917247 2.822297 1.763936 4.162889 2.75174 2.681182 1.975608 5.50348 3.951216 8.114104 6.138496 1.340591 1.058361 2.610625 2.18728 3.951216 3.316199 1.270034 1.128919 2.540068 2.328395 3.810102 3.527872 2.610625 2.328395 4.93902 4.93902 7.337972 7.479088 2.398953 2.610625 4.586233 5.362365 6.773514 8.043547 1.058361 1.411149 2.116723 2.822297 3.104527 4.233446l1.552263 2.116723 0.776132 1.058361 0.705574 1.128919c3.810101 5.856267 7.126301 11.853648 9.736926 17.921587 0.705574 1.481706 1.270034 3.03397 1.905051 4.515676 0.28223 0.776132 0.635017 1.481706 0.917246 2.257838s0.493902 1.552263 0.776132 2.257838l1.481706 4.445118c0.211672 0.705574 0.493902 1.481706 0.705574 2.18728 0.211672 0.705574 0.352787 1.481706 0.56446 2.187281 0.352787 1.481706 0.705574 2.892855 1.058361 4.37456 0.352787 1.411149 0.705574 2.822297 0.917247 4.233446 0.423345 2.822297 0.846689 5.50348 1.128919 8.114105l0.211672 1.90505c0.070557 0.635017 0.070557 1.270034 0.141115 1.905051 0.070557 1.270034 0.141115 2.46951 0.141115 3.668987 0 1.199476 0.070557 2.328395 0.070557 3.457314 0 0.564459 0.070557 1.128919 0 1.622821 0 0.564459-0.070557 1.058361-0.070557 1.622821-0.141115 2.116723-0.211672 4.092331-0.423345 5.926824-0.070557 0.917247-0.141115 1.763936-0.211672 2.610625-0.070557 0.846689-0.28223 1.622821-0.352787 2.398952-0.28223 1.481706-0.493902 2.822297-0.776132 4.021774-0.211672 1.128919-0.493902 2.116723-0.635017 2.963412-0.211672 0.776132-0.352787 1.411149-0.493902 1.834493-0.141115 0.423345-0.141115 0.635017-0.141115 0.635017l-2.116723 0.28223s-0.564459-3.104527-1.622821-8.537449c-0.141115-0.705574-0.211672-1.411149-0.423344-2.116723-0.211672-0.776132-0.352787-1.552263-0.56446-2.328395-0.423345-1.622821-0.846689-3.386757-1.270033-5.22125-0.423345-1.905051-1.128919-3.810101-1.763936-5.856267-0.28223-1.058361-0.635017-2.116723-0.987804-3.175085-0.141115-0.564459-0.352787-1.058361-0.493902-1.622821-0.141115-0.564459-0.423345-1.128919-0.56446-1.62282-0.846689-2.18728-1.693378-4.515676-2.540067-6.914629-0.987804-2.328395-2.046166-4.727348-3.104527-7.267415-0.28223-0.635017-0.493902-1.270034-0.846689-1.834493-0.28223-0.635017-0.635017-1.199476-0.917247-1.834494-0.635017-1.270034-1.270034-2.46951-1.905051-3.739543-0.352787-0.635017-0.635017-1.270034-0.987804-1.905051l-1.058361-1.905051-2.116723-3.810101c-2.892855-5.150692-6.279611-10.230828-9.948598-15.240405l-0.705574-0.917247-0.705575-0.917246-1.411148-1.834494c-0.987804-1.199476-1.905051-2.46951-2.892855-3.668986-0.987804-1.199476-2.046166-2.398953-3.104527-3.598429-1.058361-1.199476-2.046166-2.398953-3.104527-3.527872-2.18728-2.257838-4.233446-4.65679-6.491284-6.84407-1.128919-1.128919-2.257838-2.18728-3.316199-3.3162-1.128919-1.058361-2.328395-2.116723-3.457314-3.175084-0.564459-0.493902-1.128919-1.058361-1.693378-1.552264-0.564459-0.493902-1.199476-0.987804-1.763936-1.481706-1.199476-0.987804-2.328395-1.975608-3.527872-2.963412-1.128919-0.987804-2.398953-1.905051-3.527871-2.822297-1.199476-0.917247-2.328395-1.905051-3.527872-2.75174-2.398953-1.763936-4.727348-3.457314-7.055743-5.080135-1.199476-0.776132-2.328395-1.622821-3.457314-2.398953-1.128919-0.776132-2.328395-1.552263-3.457314-2.257837-1.128919-0.776132-2.257838-1.411149-3.386757-2.116723-1.128919-0.705574-2.18728-1.411149-3.316199-2.046166-2.18728-1.270034-4.304003-2.540068-6.420726-3.668986-1.058361-0.564459-2.046166-1.128919-3.03397-1.693379-0.987804-0.493902-1.975608-1.058361-2.963412-1.552263-1.905051-0.987804-3.739544-1.905051-5.50348-2.75174-3.457314-1.693378-6.561841-3.03397-9.101908-4.162888-2.540068-1.058361-4.586233-1.834493-5.926825-2.398953-0.705574-0.28223-1.199476-0.423345-1.552263-0.564459-0.352787-0.141115-0.564459-0.211672-0.564459-0.211673l0.564459-2.18728z" fill="#FFFFFF" /><path d="M337.758423 262.473644s-0.211672 0.987804-0.846689 2.892855c-0.635017 1.834493-1.552263 4.515676-3.245642 7.831875-0.846689 1.622821-1.905051 3.457314-3.245641 5.291807-1.340591 1.905051-2.963412 3.880659-5.22125 5.715152-2.18728 1.834493-5.080135 3.598429-8.678564 4.374561-1.834493 0.423345-3.810101 0.493902-5.78571 0.28223-1.975608-0.211672-3.951216-0.776132-5.785709-1.481706-3.739544-1.552263-6.914628-3.880659-9.666368-6.491284-2.75174-2.610625-5.291807-5.50348-7.479088-8.608007-0.564459-0.776132-1.128919-1.552263-1.622821-2.328395l-0.423344-0.564459-0.070558-0.141115-0.141115-0.28223-0.070557-0.070557-0.211672-0.28223-0.705575-1.128919c-0.987804-1.481706-1.975608-3.03397-2.892854-4.586233-1.975608-3.104527-3.951216-6.350169-5.926825-9.736926-3.880659-6.702956-7.69076-13.829257-11.148074-21.308344-3.457314-7.479088-6.561841-15.240405-9.243023-23.213395-2.681182-7.97299-4.93902-16.087094-6.632399-24.201199-1.693378-8.114105-2.892855-16.228209-3.598429-24.060084-0.705574-7.831875-0.846689-15.452077-0.635017-22.719493 0.141115-3.598429 0.352787-7.126301 0.635017-10.442499 0.352787-3.386757 0.705574-6.632399 1.128919-9.736926 0.211672-1.552263 0.493902-3.03397 0.705574-4.515676 0.28223-1.481706 0.493902-2.892855 0.776132-4.304003 0.28223-1.411149 0.564459-2.75174 0.846689-4.092331 0.28223-1.340591 0.564459-2.610625 0.84669-3.810101 0.635017-2.46951 1.199476-4.727348 1.834493-6.844071 0.635017-2.116723 1.199476-4.021774 1.834493-5.715152 0.28223-0.846689 0.564459-1.693378 0.846689-2.398953 0.28223-0.776132 0.564459-1.481706 0.776132-2.116723 0.211672-0.635017 0.493902-1.270034 0.705574-1.834493 0.211672-0.564459 0.423345-1.058361 0.635017-1.481706 0.352787-0.917247 0.635017-1.552263 0.846689-2.046165 0.211672-0.493902 0.28223-0.705574 0.28223-0.705575v0.776132c0 0.493902 0.070557 1.270034 0.070557 2.187281 0.070557 1.905051 0.070557 4.727348 0.141115 8.325776 0.070557 3.527872 0.141115 7.831875 0.423345 12.770895 0.070557 2.46951 0.211672 5.009578 0.352787 7.761318 0.141115 2.75174 0.352787 5.574037 0.564459 8.537449 0.211672 2.963412 0.493902 6.067939 0.84669 9.243024 0.28223 3.175084 0.635017 6.420726 1.128919 9.807483 0.846689 6.702956 1.975608 13.688142 3.316199 20.884999 1.340591 7.196858 2.963412 14.534831 4.868463 21.943361s4.092331 14.887618 6.491283 22.296149c2.398953 7.40853 5.080135 14.746503 7.831875 21.943361 2.75174 7.196858 5.715152 14.252601 8.678564 21.096672 1.481706 3.457314 2.963412 6.844071 4.374561 10.089712 0.705574 1.693378 1.411149 3.316199 2.116723 5.009578 0.141115 0.423345 0.352787 0.846689 0.493902 1.199476l0.141115 0.28223v0.070557c0.070557 0.211672-0.070557-0.141115-0.070558-0.141114l0.070558 0.141114 0.282229 0.56446c0.352787 0.705574 0.705574 1.481706 1.058362 2.116723 0.705574 1.411149 1.481706 2.75174 2.18728 4.021773 0.776132 1.270034 1.552263 2.46951 2.328396 3.598429 1.622821 2.18728 3.316199 4.021774 5.080135 5.22125 1.763936 1.199476 3.386757 1.905051 5.291807 1.975608 1.834493 0.070557 3.880659-0.423345 5.785709-1.270033 1.905051-0.917247 3.668986-2.046166 5.22125-3.3162 1.552263-1.270034 2.963412-2.540068 4.162889-3.739543 2.46951-2.46951 4.233446-4.586233 5.432922-6.06794 1.340591-1.622821 1.905051-2.46951 1.90505-2.46951z" fill="#744520" /><path d="M793.418315 921.197823c153.956315-78.177634 215.34128-266.354303 137.093089-420.310618l-557.403707 283.217529c78.177634 153.956315 266.354303 215.34128 420.310618 137.093089z" fill="#F4C323" /><path d="M768.017639 847.676979l-15.240405 7.761318c-0.28223 0.141115-0.564459 0-0.705574-0.211673L655.549094 665.215462c-0.141115-0.28223 0-0.564459 0.211672-0.705574l15.240405-7.761318c0.28223-0.141115 0.564459 0 0.705575 0.211673l96.522566 190.011162c0.141115 0.211672 0.070557 0.564459-0.211673 0.705574zM889.517536 702.89313l-5.856267 16.087095c-0.070557 0.28223-0.423345 0.423345-0.705574 0.352787l-188.458899-68.864053c-0.28223-0.070557-0.423345-0.423345-0.352787-0.705574l5.856267-16.087095c0.070557-0.28223 0.423345-0.423345 0.705574-0.352787l188.458899 68.864053c0.352787 0.070557 0.493902 0.423345 0.352787 0.705574zM587.743402 872.65431l-16.651553-3.880659c-0.28223-0.070557-0.493902-0.352787-0.423345-0.635017l45.932888-195.302969c0.070557-0.28223 0.352787-0.493902 0.635017-0.423345l16.651554 3.880659c0.28223 0.070557 0.493902 0.352787 0.423344 0.635017l-45.932888 195.302969c-0.070557 0.28223-0.352787 0.493902-0.635017 0.423345z" fill="#854922" /><path d="M758.210156 894.738786L649.410597 680.596982l-61.878867 228.041618c55.317026 13.405912 115.008613 9.666368 170.678426-13.899814zM686.171019 658.371391l110.069593 216.681872c51.64804-31.962516 89.396265-78.953766 110.351822-132.365741L686.171019 658.371391zM609.616206 663.945428l-201.935368 102.590505c30.76304 60.538276 80.929374 104.636671 139.068697 128.767312L609.616206 663.945428zM700.211948 617.941983l218.939709 83.822228c13.264797-59.762144 6.702956-124.392751-23.213395-183.237649L700.211948 617.941983z" fill="#F2B11A" /><path d="M895.72659 553.734721m-16.157652 0a16.157652 16.157652 0 1 0 32.315304 0 16.157652 16.157652 0 1 0-32.315304 0Z" fill="#FFFFFF" /><path d="M172.23069 533.837525m-15.38152 0a15.38152 15.38152 0 1 0 30.76304 0 15.38152 15.38152 0 1 0-30.76304 0Z" fill="#774621" /><path d="M210.261145 446.557982m-15.38152 0a15.38152 15.38152 0 1 0 30.76304 0 15.38152 15.38152 0 1 0-30.76304 0Z" fill="#774621" /><path d="M240.953628 477.250465m-15.38152 0a15.38152 15.38152 0 1 0 30.76304 0 15.38152 15.38152 0 1 0-30.76304 0Z" fill="#774621" /><path d="M295.00062 422.427341m-15.38152 0a15.38152 15.38152 0 1 0 30.76304 0 15.38152 15.38152 0 1 0-30.76304 0Z" fill="#774621" /><path d="M373.107697 519.584924m-15.38152 0a15.38152 15.38152 0 1 0 30.76304 0 15.38152 15.38152 0 1 0-30.76304 0Z" fill="#774621" /><path d="M240.953628 642.143182m-15.38152 0a15.38152 15.38152 0 1 0 30.76304 0 15.38152 15.38152 0 1 0-30.76304 0Z" fill="#774621" /><path d="M357.726177 665.286019m-15.38152 0a15.38152 15.38152 0 1 0 30.76304 0 15.38152 15.38152 0 1 0-30.76304 0Z" fill="#774621" /><path d="M76.978158 374.589403c-4.233446 0-8.466892-0.070557-12.700338-0.211673l-22.931165-0.846689 15.522635-16.863226c27.658513-30.057466 35.349273-44.733411 50.660235-74.014745 2.540068-4.797905 5.080135-9.736926 8.043547-15.310963 7.620203-14.817061 24.765658-30.057466 45.862331-40.782195 4.304003-2.18728 9.313581-4.445118 14.958175-6.632399-13.688142-4.233446-28.505202-10.795287-43.816165-20.743885l-21.872803-14.111486 25.54179-5.150692c30.974712-6.209054 42.546131-8.537449 64.560049-20.532213l0.56446-0.282229 0.635017-0.211673c1.128919-0.423345 3.245642-1.975608 5.150692-3.386756 5.856267-4.304003 14.675946-10.72473 25.612348-7.620203 9.736926 2.75174 17.357128 11.924206 24.553986 29.704679l0.211672 0.564459c6.420726 18.979949 11.641976 52.635844 5.362365 84.88059-8.749121 44.874526-37.113209 77.542617-82.058293 94.546958l-0.282229 0.141115c-32.95032 11.218632-67.735134 16.863226-103.578309 16.863226z m161.082615-144.50162c-30.128023 0-52.776959 8.043547-67.02956 15.310963-20.391098 10.371942-32.526976 23.566182-36.619306 31.680287l-0.070558 0.141114c-2.892855 5.50348-5.50348 10.4425-8.043547 15.240406-12.488665 23.918969-20.532212 39.229932-38.312685 60.820505 29.563564-1.058361 58.139323-6.279611 85.374492-15.593192 38.17157-14.464273 61.314408-40.993868 68.65238-78.742093 1.975608-10.019155 2.610625-19.756081 2.46951-28.716875-2.18728-0.070557-4.304003-0.141115-6.420726-0.141115z m-69.21684-35.490388c32.597533 13.758699 59.621029 11.571419 73.097499 8.890237-1.693378-9.666368-3.810101-16.298767-4.445118-18.274375-6.350169-15.522635-10.513057-17.004341-10.583615-17.004341-1.340591 0-5.22125 2.822297-7.267415 4.374561-2.822297 2.116723-5.785709 4.233446-9.172467 5.715152-15.734307 8.466892-27.235168 12.700338-41.628884 16.298766z" fill="#774621" /></svg>